name ./resultDataOpenSim/trcMotMarkerGrf/sub09/grf-14-03.mot
datacolumns 19
datarows 22
range 0.97200000 1.05600000
endheader

                time	     ground_force_vx	     ground_force_vy	     ground_force_vz	     ground_force_px	     ground_force_py	     ground_force_pz	   l_ground_force_vx	   l_ground_force_vy	   l_ground_force_vz	   l_ground_force_px	   l_ground_force_py	   l_ground_force_pz	     ground_torque_x	     ground_torque_y	     ground_torque_z	   l_ground_torque_x	   l_ground_torque_y	   l_ground_torque_z	
          0.97200000	          0.00000000	          0.00000000	          0.00000000	          0.00000000	          0.00000000	          0.00000000	         26.27798471	        444.84018617	          6.78773757	          0.17185958	         -0.07500000	          0.05320418	          0.00000000	          0.00000000	          0.00000000	          0.00000000	         -2.10357092	          0.00000000	
          0.97600000	          0.00000000	          0.00000000	          0.00000000	          0.00000000	          0.00000000	          0.00000000	         29.04902075	        448.01184970	          6.08718778	          0.17213005	         -0.07500000	          0.05360049	          0.00000000	          0.00000000	          0.00000000	          0.00000000	         -2.33522723	          0.00000000	
          0.98000000	          0.00000000	          0.00000000	          0.00000000	          0.00000000	          0.00000000	          0.00000000	         31.79123813	        451.48903556	          5.39340746	          0.17228833	         -0.07500000	          0.05395005	          0.00000000	          0.00000000	          0.00000000	          0.00000000	         -2.56079497	          0.00000000	
          0.98400000	          0.00000000	          0.00000000	          0.00000000	          0.00000000	          0.00000000	          0.00000000	         34.46925482	        455.31894348	          4.72964962	          0.17239990	         -0.07500000	          0.05428823	          0.00000000	          0.00000000	          0.00000000	          0.00000000	         -2.77676055	          0.00000000	
          0.98800000	          0.00000000	          0.00000000	          0.00000000	          0.00000000	          0.00000000	          0.00000000	         37.06705329	        459.55336753	          4.10491258	          0.17255768	         -0.07500000	          0.05467019	          0.00000000	          0.00000000	          0.00000000	          0.00000000	         -2.98123361	          0.00000000	
          0.99200000	          0.00000000	          0.00000000	          0.00000000	          0.00000000	          0.00000000	          0.00000000	         39.60854252	        464.27123385	          3.52642010	          0.17282184	         -0.07500000	          0.05513824	          0.00000000	          0.00000000	          0.00000000	          0.00000000	         -3.17374824	          0.00000000	
          0.99600000	          0.00000000	          0.00000000	          0.00000000	          0.00000000	          0.00000000	          0.00000000	         42.16416970	        469.55536880	          3.00830155	          0.17322148	         -0.07500000	          0.05570370	          0.00000000	          0.00000000	          0.00000000	          0.00000000	         -3.35506014	          0.00000000	
          1.00000000	          0.00000000	          0.00000000	          0.00000000	          0.00000000	          0.00000000	          0.00000000	         44.83494699	        475.43311121	          2.56746758	          0.17377937	         -0.07500000	          0.05635471	          0.00000000	          0.00000000	          0.00000000	          0.00000000	         -3.52717654	          0.00000000	
          1.00400000	          0.00000000	          0.00000000	          0.00000000	          0.00000000	          0.00000000	          0.00000000	         47.72158106	        481.87103809	          2.21091683	          0.17449558	         -0.07500000	          0.05707197	          0.00000000	          0.00000000	          0.00000000	          0.00000000	         -3.69349933	          0.00000000	
          1.00800000	          0.00000000	          0.00000000	          0.00000000	          0.00000000	          0.00000000	          0.00000000	         50.88986421	        488.81903888	          1.92691447	          0.17532178	         -0.07500000	          0.05784393	          0.00000000	          0.00000000	          0.00000000	          0.00000000	         -3.85863528	          0.00000000	
          1.01200000	          0.00000000	          0.00000000	          0.00000000	          0.00000000	          0.00000000	          0.00000000	         54.35013277	        496.24246053	          1.68714432	          0.17619026	         -0.07500000	          0.05865331	          0.00000000	          0.00000000	          0.00000000	          0.00000000	         -4.02750542	          0.00000000	
          1.01600000	          0.00000000	          0.00000000	          0.00000000	          0.00000000	          0.00000000	          0.00000000	         58.07335589	        504.11807409	          1.45555885	          0.17702491	         -0.07500000	          0.05946568	          0.00000000	          0.00000000	          0.00000000	          0.00000000	         -4.20388671	          0.00000000	
          1.02000000	          0.00000000	          0.00000000	          0.00000000	          0.00000000	          0.00000000	          0.00000000	         62.03530107	        512.38496636	          1.20085022	          0.17777126	         -0.07500053	          0.06023893	          0.00000000	          0.00000000	          0.00000000	          0.00000000	         -4.38898251	          0.00000000	
          1.02400000	          0.00000000	          0.00000000	          0.00000000	          0.00000000	          0.00000000	          0.00000000	         66.24345891	        520.88969823	          0.90738852	          0.17840583	         -0.07500016	          0.06093808	          0.00000000	          0.00000000	          0.00000000	          0.00000000	         -4.58066712	          0.00000000	
          1.02800000	          0.00000000	          0.00000000	          0.00000000	          0.00000000	          0.00000000	          0.00000000	         70.71815204	        529.40437450	          0.57665429	          0.17893005	         -0.07500072	          0.06154259	          0.00000000	          0.00000000	          0.00000000	          0.00000000	         -4.77376060	          0.00000000	
          1.03200000	          0.00000000	          0.00000000	          0.00000000	          0.00000000	          0.00000000	          0.00000000	         75.45172532	        537.71641531	          0.22409212	          0.17937323	         -0.07500100	          0.06205111	          0.00000000	          0.00000000	          0.00000000	          0.00000000	         -4.96128446	          0.00000000	
          1.03600000	          0.00000000	          0.00000000	          0.00000000	          0.00000000	          0.00000000	          0.00000000	         80.39319671	        545.69827146	         -0.12522723	          0.17979090	         -0.07500057	          0.06248870	          0.00000000	          0.00000000	          0.00000000	          0.00000000	         -5.13626076	          0.00000000	
          1.04000000	          0.00000000	          0.00000000	          0.00000000	          0.00000000	          0.00000000	          0.00000000	         85.47291048	        553.30097004	         -0.44759584	          0.18023237	         -0.07500073	          0.06288990	          0.00000000	          0.00000000	          0.00000000	          0.00000000	         -5.29341182	          0.00000000	
          1.04400000	          0.00000000	          0.00000000	          0.00000000	          0.00000000	          0.00000000	          0.00000000	         90.63211347	        560.51701390	         -0.73465648	          0.18073972	         -0.07500100	          0.06328548	          0.00000000	          0.00000000	          0.00000000	          0.00000000	         -5.43021950	          0.00000000	
          1.04800000	          0.00000000	          0.00000000	          0.00000000	          0.00000000	          0.00000000	          0.00000000	         95.82341057	        567.37761858	         -1.00408604	          0.18133355	         -0.07500057	          0.06369573	          0.00000000	          0.00000000	          0.00000000	          0.00000000	         -5.54709434	          0.00000000	
          1.05200000	          0.00000000	          0.00000000	          0.00000000	          0.00000000	          0.00000000	          0.00000000	        100.99472508	        573.95174411	         -1.30479519	          0.18198863	         -0.07500009	          0.06411958	          0.00000000	          0.00000000	          0.00000000	          0.00000000	         -5.64667867	          0.00000000	
          1.05600000	          0.00000000	          0.00000000	          0.00000000	          0.00000000	          0.00000000	          0.00000000	        106.08888557	        580.29117473	         -1.70502799	          0.18265401	         -0.07500044	          0.06453744	          0.00000000	          0.00000000	          0.00000000	          0.00000000	         -5.73252910	          0.00000000	
